<?xml version="1.0" encoding="UTF-8"?>
<svg id="Layer_1" xmlns="http://www.w3.org/2000/svg" version="1.1" viewBox="0 0 470.216 114.151">
  <!-- Generator: Adobe Illustrator 29.3.1, SVG Export Plug-In . SVG Version: 2.1.0 Build 151)  -->
  <defs>
    <style>
      .st0 {
        font-size: 17.156px;
        letter-spacing: .05em;
      }

      .st0, .st1, .st2 {
        fill: #fff;
      }

      .st0, .st2 {
        font-family: HelveticaNeueLTStd-Bd, 'Helvetica Neue LT Std';
      }

      .st2 {
        font-size: 16.147px;
      }
    </style>
  </defs>
  <path class="st1" d="M194.846,56.881c-1.198.32-1.708.337-2.078.573-12.527,7.974-24.255,16.927-34.145,28.101-1.051,1.187-1.87,2.582-2.772,3.897-1.533,2.236-3.331,2.875-5.85,2.006-1.503-.519-2.988-1.087-5.127-1.869,5.506-5.944,10.84-11.701,16.174-17.458l-.442-.564c-1.807,1.242-3.686,2.394-5.41,3.743-6.85,5.357-14.367,9.549-22.354,12.926-1.856.785-3.802,1.353-5.67,2.11-3.184,1.291-6.134.396-8.471-1.596-1.169-.997-1.328-3.178-2.021-5.028-2.863,1.423-5.977,2.942-9.064,4.513-3.655,1.86-7.148,4.062-11.498,4.053-6.501-.013-9.108-3.719-6.761-9.79.139-.359.157-.764.353-1.774-1.364.77-2.262,1.289-3.169,1.788-9.775,5.377-19.475,10.9-29.358,16.071-5.944,3.11-12.012,6.131-18.318,8.361-7.656,2.706-15.577,4.713-23.466,6.689-6.487,1.625-11.092-.666-14.468-6.458-1.457-2.499-1.049-5.125.18-7.287,3.018-5.31,6.054-10.692,9.797-15.486,4.328-5.542,9.209-10.703,14.24-15.631,5.644-5.529,11.442-10.977,17.678-15.809,10.274-7.961,20.859-15.533,31.506-22.994,4.859-3.406,10.068-6.362,15.313-9.156,7.403-3.942,14.886-7.77,22.532-11.206,4.422-1.987,9.2-3.219,13.875-4.596,5.627-1.656,11.277-3.268,16.989-4.591,4.587-1.062,8.887-.06,12.916,2.549,2.649,1.716,2.236,3.923,1.201,5.942-1.447,2.823-3.005,5.797-5.235,7.967-5.158,5.021-10.787,9.555-16.152,14.367-4.115,3.691-9.023,3.323-12.259-1.034-.999-1.345-.781-2.107.816-2.842,8.55-3.933,16.291-9.077,22.827-15.896.778-.812,1.054-2.104,1.563-3.174l-.505-.675c-1.848.335-3.744.509-5.537,1.033-10.661,3.118-20.925,7.201-30.741,12.451-6.001,3.21-12.307,5.853-18.287,9.1-4.644,2.522-9.061,5.483-13.459,8.428-6.688,4.477-13.327,9.031-19.889,13.69-13.559,9.628-25.445,21.032-35.358,34.385-3.222,4.34-5.786,9.17-8.624,13.793-.386.629-.614,1.354-1.219,2.722,2.32-.135,4.278.117,5.995-.412,7.999-2.467,16.022-4.904,23.858-7.832,6.365-2.378,12.681-5.056,18.656-8.273,11.757-6.33,23.376-12.938,34.836-19.791,9.137-5.464,17.848-11.635,26.946-17.167,6.839-4.158,14.122-7.536,21.983-9.346,2.017-.464,4.207-.307,6.31-.226,2.4.093,2.572,2.001,2.638,4.257,1.95-.788,3.623-1.861,5.396-2.065,1.641-.189,3.389.553,5.09.884.299.554.599,1.109.898,1.663-.785.282-1.712.385-2.331.876-5.125,4.066-10.256,8.13-15.261,12.342-4.628,3.895-9.165,7.906-13.627,11.991-3.332,3.05-6.512,6.27-9.678,9.495-.484.493-.525,1.421-.77,2.148.77-.011,1.656.227,2.29-.071,4.705-2.213,9.393-4.468,14.025-6.832,10.485-5.351,20.139-12.013,29.515-19.076,4.759-3.585,9.374-7.37,13.938-11.203,2.115-1.776,4.408-1.527,6.687-1.009,1.665.379,1.881,1.613.581,2.809-2.53,2.328-5.112,4.601-7.663,6.908-.175.159-.275.401-.169,1.122,1.667-.844,3.344-1.666,4.998-2.535,5.138-2.699,10.291-5.372,15.389-8.146,2.344-1.275,3.746.092,5.301,1.469,1.476,1.308,1.532,2.492.799,4.402-1.43,3.727-4.86,5.245-7.49,7.601-6.803,6.091-12.993,12.689-18.02,20.336-.229.348-.395.744-.54,1.136-.082.222-.059.483-.135,1.246,1.182-.381,2.233-.525,3.075-1.021,12.104-7.139,23.569-15.139,33.719-24.936,3.499-3.378,7.19-6.557,10.796-9.824,1.487-1.348,5.826-1.32,6.88.345.485.767.257,2.446-.293,3.294-.73,1.127-2.065,1.877-3.181,2.737-8.837,6.817-15.329,15.653-21.379,24.861-1.218,1.854-2.279,3.811-3.413,5.72.215.256.43.511.644.767,1.828-.655,3.766-1.102,5.467-1.998,11.431-6.02,20.706-14.718,29.27-24.192,1.457-1.612,1.835-4.187,2.763-6.294,1.922-4.363,5.853-6.312,10.426-5.209,2.564.618,3.099,2.119,1.464,4.106-1.742,2.119-3.482,4.24-5.222,6.36.083.327.167.655.25.982,1.823.046,3.687.366,5.46.092,8.114-1.256,15.622-4.132,22.811-8.168,4.717-2.648,9.895-4.486,14.91-6.584,2.011-.841,4.104-1.55,6.222-2.053,1.829-.434,3.615-.294,4.925,1.531.332.463,1.596.763,2.11.503,2.352-1.19,3.337.616,4.311,1.953,1.151,1.581.38,2.982-1.022,4.153-10.08,8.418-18.238,18.52-25.588,29.321-.557.819-.914,1.774-1.532,2.999,2.647.658,4.787-.369,6.52-1.48,8.808-5.651,17.782-11.12,26.088-17.452,6.455-4.921,12.07-10.959,17.936-16.627,1.552-1.5,2.536-3.575,4.015-5.169.591-.637,1.911-1.121,2.732-.936,5.88,1.331,6.628,2.714,4.638,8.76-2.725,8.281-5.589,16.517-8.499,25.086,3.443.169,7.382.197,11.284.59,7.541.76,15.073,1.643,22.588,2.629,7.01.92,13.999,2.001,20.986,3.086,6.315.981,12.607,2.1,18.922,3.082,2.658.414,5.344.668,8.023.931,5.871.576,11.736,1.272,17.622,1.621,7.395.44,14.828.829,21.779-2.674,1.552-.782,3.245-1.297,4.897-1.864.333-.114,1.013-.027,1.116.177.183.363.22,1.164.013,1.294-.791.495-1.698,1.09-2.572,1.106-1.696.031-2.812.677-4.202,1.692-1.783,1.302-4.277,2.16-6.498,2.237-7.982.276-15.994.479-23.963.072-8.578-.438-17.144-1.394-25.669-2.487-9.769-1.252-19.455-3.183-29.236-4.297-8.698-.991-17.474-1.333-26.223-1.83-3.428-.195-6.892-.221-10.307.063-1.273.106-2.718,1.076-3.624,2.071-2.087,2.293-3.786,4.935-5.833,7.27-3.642,4.156-8.369,5.615-13.633,4.262-2.741-.704-5.501-2.011-7.769-3.696-2.58-1.916-2.434-3.878-.455-6.541.226-.304.34-.692.141-1.499-1.378.835-2.804,1.601-4.125,2.518-5.462,3.795-11.433,6.21-17.973,7.574-4.72.985-8.775-2.863-7.607-7.984.178-.779.346-1.56.66-2.974-2.51,1.437-4.421,2.586-6.381,3.643-6.214,3.347-12.665,6.066-19.556,7.755-2.847.698-7.371-1.421-8.745-3.792-.61-1.053-.449-3.141.219-4.235,1.951-3.192,4.09-6.341,6.61-9.092,2.986-3.26,6.454-6.075,9.691-9.107.868-.813,1.657-1.71,2.729-2.824-3.106.14-5.585.263-8.065.354-.588.022-1.331.151-1.747-.138-3.204-2.223-4.811.126-6.58,2.165-7.13,8.217-15.17,15.451-24.071,21.68-3.62,2.533-7.346,4.99-12.036,5.432-4.063.383-7.292-1.358-9.913-3.918-.813-.794-.032-3.369.26-5.087.168-.991.819-1.901,1.252-2.847-.237-.209-.474-.417-.711-.626-2.28,1.814-4.503,3.706-6.852,5.426-4.187,3.064-8.444,6-13.634,7.231-3.532.838-7.216-1.648-8.658-4.256-.427-.773-.255-2.241.205-3.084,3.669-6.722,7.918-13.04,13.304-18.553,2.063-2.111,3.905-4.438,6.335-7.225ZM151.507,47.753c-.102-.206-.203-.413-.305-.619-.855.055-1.715.069-2.564.171-6.42.774-11.902,4.028-17.517,6.826-8.999,4.486-17.167,10.28-24.514,17.116-2.613,2.432-4.641,5.547-6.647,8.544-.639.954-.342,2.534-.474,3.828,1.207-.007,2.541.319,3.595-.086,2.808-1.08,5.556-2.361,8.217-3.772,3.997-2.119,8.319-3.908,11.76-6.739,9.074-7.465,17.754-15.411,26.572-23.185.697-.614,1.254-1.386,1.877-2.084ZM305.509,47.726c-.119-.295-.238-.591-.356-.886-1.944.419-3.994.574-5.812,1.306-5.498,2.214-11.211,4.139-16.263,7.146-5.064,3.014-9.574,7.031-14.063,10.914-3.746,3.241-7.473,6.628-9.569,11.305-.314.7-.258,1.565-.373,2.353.81.094,1.667.404,2.422.241,2.049-.442,4.131-.901,6.063-1.688,3.8-1.547,7.7-2.999,11.202-5.088,3.911-2.333,8.072-4.266,11.133-8.057,4.518-5.597,9.634-10.71,14.484-16.04.421-.462.756-1.002,1.131-1.506ZM342.959,51.423c-8.435,7.667-16.661,15.144-24.273,22.063,4.229-.619,9.341-1.32,14.429-2.165.724-.12,1.608-.795,1.948-1.455,2.305-4.475,4.561-8.979,6.658-13.553.678-1.479.827-3.199,1.238-4.889ZM329.858,76.683c-5.242.883-10.083,1.744-14.012,5.463,5.095,2.819,12.495.053,14.012-5.463Z"/>
  <polygon class="st1" points="52.861 114.142 46.509 114.142 75.775 96.659 82.127 96.659 52.861 114.142"/>
  <polygon class="st1" points="80.88 114.151 65.446 114.151 94.712 96.668 110.146 96.668 80.88 114.151"/>
  <polygon class="st1" points="113.174 114.151 88.152 114.151 117.418 96.668 142.439 96.668 113.174 114.151"/>
  <text class="st0" transform="translate(36.715 22.426) scale(1.25 1)"><tspan x="0" y="0">THE</tspan></text>
  <path class="st1" d="M373.405,114.151H118.294l29.266-17.483h244.011l-2.311,2.178-56.474.009-1.845,1.776,56.562-.005-2.18,2.071-56.531.002-1.904,1.832,56.581-.018-2.507,2.361-56.495-.014-1.891,1.82,56.533.01-2.216,2.143h-56.556s-1.724,1.66-1.724,1.66l56.499.011-1.706,1.645ZM156.085,111.616v-8.2h.043l6.369,8.2h3.367v-12.249h-3.153v8.217h-.043l-6.391-8.217h-3.345v12.249h3.153ZM188.316,99.367v7.617c0,.938-.236,1.616-.708,2.033-.472.418-1.294.626-2.466.626-1.229,0-2.062-.24-2.498-.72-.436-.48-.654-1.126-.654-1.939v-7.617h-3.367v7.617c0,1.636.561,2.865,1.683,3.689,1.123.824,2.734,1.235,4.836,1.235,2.087,0,3.699-.414,4.836-1.244,1.136-.829,1.705-2.056,1.705-3.68v-7.617h-3.367ZM207.809,111.616v-4.786h3.367c.829,0,1.433.143,1.812.429.378.286.625.761.74,1.424.043.206.082.526.118.961.035.435.086.815.15,1.141.065.326.154.603.268.832h3.367c-.115-.126-.211-.283-.29-.472-.078-.189-.139-.403-.182-.643-.043-.24-.071-.443-.086-.609-.014-.166-.032-.386-.053-.661-.022-.274-.033-.446-.033-.515-.143-1.635-.886-2.59-2.23-2.865v-.034c1.616-.526,2.423-1.549,2.423-3.071,0-.949-.411-1.75-1.233-2.402-.822-.652-1.905-.978-3.249-.978h-8.256v12.249h3.367ZM211.498,101.46c1.544,0,2.316.566,2.316,1.698,0,1.167-.772,1.75-2.316,1.75h-3.688v-3.448h3.688ZM230.691,110.793c1.258.744,2.809,1.115,4.654,1.115,2.016,0,3.581-.363,4.696-1.089,1.115-.726,1.672-1.673,1.672-2.839,0-1.075-.508-1.927-1.523-2.556-.658-.4-1.666-.738-3.024-1.012-2.073-.423-3.353-.726-3.839-.909-.486-.183-.729-.497-.729-.944,0-.469.232-.817.697-1.046.464-.229,1.004-.343,1.619-.343,1.93,0,2.938.618,3.024,1.853h3.26c0-.903-.297-1.661-.89-2.273-.594-.612-1.333-1.043-2.22-1.295-.886-.252-1.894-.377-3.024-.377-.972,0-1.88.129-2.723.386-.844.257-1.555.678-2.134,1.261-.579.583-.869,1.269-.869,2.059,0,.549.121,1.027.365,1.432.243.406.608.741,1.094,1.003.486.263.957.469,1.415.618.457.149,1.022.292,1.694.429.214.046.529.109.944.189.414.08.732.146.954.197.222.051.497.117.826.197.329.08.582.16.761.24.178.08.361.18.547.3.185.12.318.255.397.403.078.149.118.315.118.497,0,.389-.175.703-.525.944s-.729.398-1.137.472c-.407.074-.847.112-1.319.112-.986,0-1.798-.186-2.434-.558-.636-.372-.954-.941-.954-1.707h-3.26c-.015,1.418.608,2.499,1.866,3.243ZM265.195,111.616v-2.264h-8.256v-3.002h7.42v-2.093h-7.42v-2.625h8.085v-2.264h-11.452v12.249h11.623ZM280.7,111.616v-4.786h3.367c.829,0,1.433.143,1.812.429.378.286.625.761.74,1.424.043.206.082.526.118.961.035.435.086.815.15,1.141.065.326.154.603.268.832h3.367c-.115-.126-.211-.283-.29-.472-.078-.189-.139-.403-.182-.643-.043-.24-.071-.443-.086-.609-.014-.166-.032-.386-.053-.661-.022-.274-.033-.446-.033-.515-.143-1.635-.886-2.59-2.23-2.865v-.034c1.616-.526,2.423-1.549,2.423-3.071,0-.949-.411-1.75-1.233-2.402-.822-.652-1.905-.978-3.249-.978h-8.256v12.249h3.367ZM284.388,101.46c1.544,0,2.316.566,2.316,1.698,0,1.167-.772,1.75-2.316,1.75h-3.688v-3.448h3.688ZM309.221,111.616v-4.701l5.683-7.549h-3.753l-3.56,4.838-3.581-4.838h-3.796l5.64,7.48v4.769h3.367ZM174.654,104.453h-4.452v2.849h4.452v-2.849ZM200.21,104.469h-4.452v2.849h4.452v-2.849ZM225.439,104.469h-4.452v2.849h4.452v-2.849ZM273.375,104.469h-4.452v2.849h4.452v-2.849ZM249.659,104.469h-4.452v2.849h4.452v-2.849ZM299.108,104.469h-4.452v2.849h4.452v-2.849Z"/>
  <text class="st2" transform="translate(373.42 36.822)"><tspan x="0" y="0">TM</tspan></text>
  <metadata>
    <sfw xmlns="http://ns.adobe.com/SaveForWeb/1.0/">
      <slices/>
      <sliceSourceBounds x="448.31" y="-440.84" width="470.22" height="114.15" bottomLeftOrigin="true"/>
    </sfw>
  </metadata>
</svg>